<?xml version="1.0" standalone="no"?><!DOCTYPE svg PUBLIC "-//W3C//DTD SVG 1.1//EN" 	"http://www.w3.org/Graphics/SVG/1.1/DTD/svg11.dtd"><svg width="1583" height="841" version="1.1"	xmlns="http://www.w3.org/2000/svg"><title>Krona (snapshot) - Bacteria</title><defs>	<style type="text/css">	text {font-size: 11px; font-family: sans-serif; dominant-baseline:central}	path {stroke-width:0.27499999999999997;}	path.wedge {stroke:none}	path.line {fill:none;stroke:black;}	line {stroke:black;stroke-width:0.27499999999999997;}	line.tick {stroke-width:0.5499999999999999;}	line.pattern {stroke-width:0.18333333333333332;}	circle {fill:none;stroke:black;stroke-width:0.27499999999999997;}	rect {stroke:black;stroke-width:0.27499999999999997;}	.highlight {stroke:black;stroke-width:1.375;}	.searchHighlight {fill:rgb(255, 255, 100);stroke:none;}	</style><pattern id="hiddenPattern" patternUnits="userSpaceOnUse" x="0" y="0" width="6.6" height="6.6"><line class="pattern" x1="0" y1="0" x2="3.3" y2="3.3"/><line class="pattern" x1="3.3" y1="6.6" x2="6.6" y2="3.3"/></pattern></defs><path class="wedge" fill="rgb(220,220,220)" d=" M 716.5000202859882,508.49999999999767 L 716.5000891799705,807.3599999999897 A 386.86,386.86 0 0,1 716.5000000000001,807.36 L 716.5,508.5 A 88,88 0 0 0 716.5000202859882,508.49999999999767 Z "/><path class="wedge" fill="rgb(208,114,114)" d=" M 716.5,508.5 L 716.5,807.36 A 386.86,386.86 0 1,1 1093.7771104147544,506.07243456331787 L 802.3201564299704,439.9653731106136 A 88,88 0 1 0 716.5,508.5 Z "/><path class="wedge" fill="rgb(212,127,127)" d=" M 716.5,576.5988296981534 L 716.5,807.36 A 386.86,386.86 0 0,1 615.8843071528604,46.953293478727005 L 675.9013547466593,269.77311242937935 A 156.09882969815342,156.09882969815342 0 0 0 716.5,576.5988296981534 Z "/><path class="wedge" fill="rgb(212,127,127)" d=" M 716.5,576.5988296981534 L 716.5,807.36 A 386.86,386.86 0 0,1 615.8843071528604,46.953293478727005 L 675.9013547466593,269.77311242937935 A 156.09882969815342,156.09882969815342 0 0 0 716.5,576.5988296981534 Z "/><path class="wedge" fill="rgb(212,127,127)" d=" M 617.1612768092837,233.2957318507353 L 535.1642756981682,78.77201652201484 A 386.86,386.86 0 0,1 615.8843071528604,46.953293478727005 L 661.3810514372365,215.8649066073979 A 211.92833679917265,211.92833679917265 0 0 0 617.1612768092837,233.2957318507353 Z "/><path class="wedge" fill="rgb(216,140,140)" d=" M 716.5,632.4283367991727 L 716.5,807.36 A 386.86,386.86 0 0,1 340.47044274924247,511.39791897397464 L 510.50475971803155,470.29539054609006 A 211.92833679917265,211.92833679917265 0 0 0 716.5,632.4283367991727 Z "/><path class="wedge" fill="rgb(216,140,140)" d=" M 606.6261968526469,654.512881479221 L 552.0823851878918,770.6821062525858 A 386.86,386.86 0 0,1 340.47044274924247,511.39791897397464 L 465.2142871025675,481.24349191395186 A 258.5232703573727,258.5232703573727 0 0 0 606.6261968526469,654.512881479221 Z "/><path class="wedge" fill="rgb(221,153,153)" d=" M 716.5,679.0232703573727 L 716.5,807.36 A 386.86,386.86 0 0,1 598.81483427189,789.025252007983 L 637.8556482536826,666.7708818652192 A 258.5232703573727,258.5232703573727 0 0 0 716.5,679.0232703573727 Z "/><path class="wedge" fill="rgb(221,155,153)" d=" M 637.8556482536826,666.7708818652192 L 598.81483427189,789.025252007983 A 386.86,386.86 0 0,1 552.0823851878918,770.6821062525858 L 606.6261968526469,654.512881479221 A 258.5232703573727,258.5232703573727 0 0 0 637.8556482536826,666.7708818652192 Z "/><path class="wedge" fill="rgb(216,150,140)" d=" M 510.50475971803155,470.29539054609006 L 340.47044274924247,511.39791897397464 A 386.86,386.86 0 0,1 500.1570516909511,99.78768605345346 L 597.983737751729,244.808464856264 A 211.92833679917265,211.92833679917265 0 0 0 510.50475971803155,470.29539054609006 Z "/><path class="wedge" fill="rgb(216,150,140)" d=" M 462.27227901064407,467.4313029526077 L 336.067956083852,490.7290506968594 A 386.86,386.86 0 0,1 500.1570516909511,99.78768605345346 L 571.9265457384807,206.18061767734673 A 258.5232703573727,258.5232703573727 0 0 0 462.27227901064407,467.4313029526077 Z "/><path class="wedge" fill="rgb(221,162,153)" d=" M 465.2142871025675,481.24349191395186 L 340.47044274924247,511.39791897397464 A 386.86,386.86 0 0,1 336.067956083852,490.7290506968594 L 462.27227901064407,467.4313029526077 A 258.5232703573727,258.5232703573727 0 0 0 465.2142871025675,481.24349191395186 Z "/><path class="wedge" fill="rgb(216,159,140)" d=" M 597.983737751729,244.808464856264 L 500.1570516909511,99.78768605345346 A 386.86,386.86 0 0,1 535.1642756981682,78.77201652201484 L 617.1612768092837,233.2957318507353 A 211.92833679917265,211.92833679917265 0 0 0 597.983737751729,244.808464856264 Z "/><path class="wedge" fill="rgb(221,170,153)" d=" M 571.9265457384807,206.18061767734673 L 500.1570516909511,99.78768605345346 A 386.86,386.86 0 0,1 535.1642756981682,78.77201652201484 L 595.3204919631587,192.1366751244405 A 258.5232703573727,258.5232703573727 0 0 0 571.9265457384807,206.18061767734673 Z "/><path class="wedge" fill="rgb(212,152,127)" d=" M 675.9013547466593,269.77311242937935 L 615.8843071528604,46.953293478727005 A 386.86,386.86 0 0,1 1093.777077537427,506.07257951480887 L 868.7321001797338,455.0287171496506 A 156.09882969815342,156.09882969815342 0 0 0 675.9013547466593,269.77311242937935 Z "/><path class="wedge" fill="rgb(212,152,127)" d=" M 924.2676492783663,462.2878433495356 L 1095.7649629294056,496.78071508682007 A 386.86,386.86 0 0,1 1093.777077537427,506.07257951480887 L 923.1786526261682,467.3780810944228 A 211.92833679917265,211.92833679917265 0 0 0 924.2676492783663,462.2878433495356 Z "/><path class="wedge" fill="rgb(216,162,140)" d=" M 661.3810514372365,215.8649066073979 L 615.8843071528604,46.953293478727005 A 386.86,386.86 0 0,1 987.649682355909,144.56792618782123 L 865.040301931737,269.3398245552355 A 211.92833679917265,211.92833679917265 0 0 0 661.3810514372365,215.8649066073979 Z "/><path class="wedge" fill="rgb(216,162,140)" d=" M 661.3810514372365,215.8649066073979 L 615.8843071528604,46.953293478727005 A 386.86,386.86 0 0,1 987.649682355909,144.56792618782123 L 865.040301931737,269.3398245552355 A 211.92833679917265,211.92833679917265 0 0 0 661.3810514372365,215.8649066073979 Z "/><path class="wedge" fill="rgb(216,162,140)" d=" M 746.2280598035792,163.69165944894615 L 760.985733140056,36.2062592924629 A 386.86,386.86 0 0,1 987.649682355909,144.56792618782123 L 897.6986316471396,236.10548488234397 A 258.5232703573727,258.5232703573727 0 0 0 746.2280598035792,163.69165944894615 Z "/><path class="wedge" fill="rgb(221,172,153)" d=" M 649.2625033239016,170.87347825801265 L 615.8843071528604,46.953293478727005 A 386.86,386.86 0 0,1 747.1491158788773,34.85600446027536 L 736.9815945576422,162.78933743314462 A 258.5232703573727,258.5232703573727 0 0 0 649.2625033239016,170.87347825801265 Z "/><path class="wedge" fill="rgb(221,175,153)" d=" M 736.9815945576422,162.78933743314462 L 747.1491158788773,34.85600446027536 A 386.86,386.86 0 0,1 760.985733140056,36.2062592924629 L 746.2280598035792,163.69165944894615 A 258.5232703573727,258.5232703573727 0 0 0 736.9815945576422,162.78933743314462 Z "/><path class="wedge" fill="url(#hiddenPattern)" d=" M 736.9815945576422,162.78933743314462 L 747.1491158788773,34.85600446027536 A 386.86,386.86 0 0,1 760.985733140056,36.2062592924629 L 746.2280598035792,163.69165944894615 A 258.5232703573727,258.5232703573727 0 0 0 736.9815945576422,162.78933743314462 Z "/><path class="wedge" fill="rgb(216,170,140)" d=" M 865.040301931737,269.3398245552355 L 987.649682355909,144.56792618782123 A 386.86,386.86 0 0,1 1093.781416863115,334.94655419119346 L 923.1810297808905,373.63240066768725 A 211.92833679917265,211.92833679917265 0 0 0 865.040301931737,269.3398245552355 Z "/><path class="wedge" fill="rgb(221,179,153)" d=" M 897.6986316471396,236.10548488234397 L 987.649682355909,144.56792618782123 A 386.86,386.86 0 0,1 1093.781416863115,334.94655419119346 L 968.6222812710431,363.32800857975775 A 258.5232703573727,258.5232703573727 0 0 0 897.6986316471396,236.10548488234397 Z "/><path class="wedge" fill="rgb(216,174,140)" d=" M 923.1810297808905,373.63240066768725 L 1093.781416863115,334.94655419119346 A 386.86,386.86 0 0,1 1099.3321694261056,476.1793467319936 L 926.2218242767245,451.0020714133688 A 211.92833679917265,211.92833679917265 0 0 0 923.1810297808905,373.63240066768725 Z "/><path class="wedge" fill="rgb(221,183,153)" d=" M 968.6222812710431,363.32800857975775 L 1093.781416863115,334.94655419119346 A 386.86,386.86 0 0,1 1103.3482160035278,423.5194991120948 L 975.0153955775922,422.51781209042014 A 258.5232703573727,258.5232703573727 0 0 0 968.6222812710431,363.32800857975775 Z "/><path class="wedge" fill="rgb(221,183,153)" d=" M 1010.7861531325964,373.6272943640879 L 1098.544342165554,359.64952572667204 A 386.86,386.86 0 0,1 1103.3482160035278,423.5194991120948 L 1014.4865444115201,422.825899588118 A 297.99562154369454,297.99562154369454 0 0 0 1010.7861531325964,373.6272943640879 Z "/><path class="wedge" fill="rgb(225,192,165)" d=" M 1007.1173042315299,354.5987637414049 L 1093.781416863115,334.94655419119346 A 386.86,386.86 0 0,1 1098.544342165554,359.64952572667204 L 1010.7861531325964,373.6272943640879 A 297.99562154369454,297.99562154369454 0 0 0 1007.1173042315299,354.5987637414049 Z "/><path class="wedge" fill="rgb(221,185,153)" d=" M 975.0153955775922,422.51781209042014 L 1103.3482160035278,423.5194991120948 A 386.86,386.86 0 0,1 1099.3321694261056,476.1793467319936 L 972.3316301453875,457.7083100049555 A 258.5232703573727,258.5232703573727 0 0 0 975.0153955775922,422.51781209042014 Z "/><path class="wedge" fill="rgb(212,169,127)" d=" M 926.2218242767245,451.0020714133688 L 1099.3321694261056,476.1793467319936 A 386.86,386.86 0 0,1 1095.7649629294056,496.78071508682007 L 924.2676492783663,462.2878433495356 A 211.92833679917265,211.92833679917265 0 0 0 926.2218242767245,451.0020714133688 Z "/><path class="wedge" fill="url(#hiddenPattern)" d=" M 926.2218242767245,451.0020714133688 L 1099.3321694261056,476.1793467319936 A 386.86,386.86 0 0,1 1095.7649629294056,496.78071508682007 L 924.2676492783663,462.2878433495356 A 211.92833679917265,211.92833679917265 0 0 0 926.2218242767245,451.0020714133688 Z "/><path class="wedge" fill="rgb(189,208,114)" d=" M 802.3201564299704,439.9653731106136 L 1093.7771104147544,506.07243456331787 A 386.86,386.86 0 0,1 959.7509877660024,721.3149207583697 L 771.832903177915,488.9271132366658 A 88,88 0 0 0 802.3201564299704,439.9653731106136 Z "/><path class="wedge" fill="rgb(195,212,127)" d=" M 868.7321134458051,455.0286586614169 L 1093.7771104147544,506.07243456331787 A 386.86,386.86 0 0,1 1017.7667375142128,663.1911874534023 L 838.0617669258888,518.4264083635716 A 156.09882969815342,156.09882969815342 0 0 0 868.7321134458051,455.0286586614169 Z "/><path class="wedge" fill="rgb(195,212,127)" d=" M 868.7321134458051,455.0286586614169 L 1093.7771104147544,506.07243456331787 A 386.86,386.86 0 0,1 1017.7667375142128,663.1911874534023 L 838.0617669258888,518.4264083635716 A 156.09882969815342,156.09882969815342 0 0 0 868.7321134458051,455.0286586614169 Z "/><path class="wedge" fill="rgb(201,216,140)" d=" M 923.1786706369144,467.37800168758724 L 1093.7771104147544,506.07243456331787 A 386.86,386.86 0 0,1 1017.7667375142128,663.1911874534023 L 881.5389252295404,553.4502655038407 A 211.92833679917265,211.92833679917265 0 0 0 923.1786706369144,467.37800168758724 Z "/><path class="wedge" fill="rgb(166,212,127)" d=" M 838.0617669258888,518.4264083635716 L 1017.7667375142128,663.1911874534023 A 386.86,386.86 0 0,1 972.850430024714,710.2328366377277 L 819.9379416829763,537.407813483626 A 156.09882969815342,156.09882969815342 0 0 0 838.0617669258888,518.4264083635716 Z "/><path class="wedge" fill="rgb(166,212,127)" d=" M 838.0617669258888,518.4264083635716 L 1017.7667375142128,663.1911874534023 A 386.86,386.86 0 0,1 972.850430024714,710.2328366377277 L 819.9379416829763,537.407813483626 A 156.09882969815342,156.09882969815342 0 0 0 838.0617669258888,518.4264083635716 Z "/><path class="wedge" fill="rgb(166,212,127)" d=" M 860.7846859194267,575.7274117145421 L 979.8813601230854,703.8565223172279 A 386.86,386.86 0 0,1 972.850430024714,710.2328366377277 L 856.933025572275,579.2204626602389 A 211.92833679917265,211.92833679917265 0 0 0 860.7846859194267,575.7274117145421 Z "/><path class="wedge" fill="rgb(175,216,140)" d=" M 881.5389252295404,553.4502655038407 L 1017.7667375142128,663.1911874534023 A 386.86,386.86 0 0,1 979.8813601230854,703.8565223172279 L 860.7846859194267,575.7274117145421 A 211.92833679917265,211.92833679917265 0 0 0 881.5389252295404,553.4502655038407 Z "/><path class="wedge" fill="rgb(145,208,114)" d=" M 819.9379416829763,537.407813483626 L 972.850430024714,710.2328366377277 A 386.86,386.86 0 0,1 959.7509646511234,721.3149394499846 L 814.6522796489356,541.8794654496808 A 156.09882969815342,156.09882969815342 0 0 0 819.9379416829763,537.407813483626 Z "/><path class="wedge" fill="url(#hiddenPattern)" d=" M 819.9379416829763,537.407813483626 L 972.850430024714,710.2328366377277 A 386.86,386.86 0 0,1 959.7509646511234,721.3149394499846 L 814.6522796489356,541.8794654496808 A 156.09882969815342,156.09882969815342 0 0 0 819.9379416829763,537.407813483626 Z "/><path class="wedge" fill="rgb(114,208,152)" d=" M 771.832903177915,488.9271132366658 L 959.7509877660024,721.3149207583697 A 386.86,386.86 0 0,1 837.4422568508892,787.9692233477704 L 744.0110339732157,504.0891321268774 A 88,88 0 0 0 771.832903177915,488.9271132366658 Z "/><path class="wedge" fill="rgb(114,208,152)" d=" M 771.832903177915,488.9271132366658 L 959.7509877660024,721.3149207583697 A 386.86,386.86 0 0,1 837.4422568508892,787.9692233477704 L 744.0110339732157,504.0891321268774 A 88,88 0 0 0 771.832903177915,488.9271132366658 Z "/><path class="wedge" fill="rgb(114,208,152)" d=" M 771.832903177915,488.9271132366658 L 959.7509877660024,721.3149207583697 A 386.86,386.86 0 0,1 837.4422568508892,787.9692233477704 L 744.0110339732157,504.0891321268774 A 88,88 0 0 0 771.832903177915,488.9271132366658 Z "/><path class="wedge" fill="rgb(114,208,152)" d=" M 771.832903177915,488.9271132366658 L 959.7509877660024,721.3149207583697 A 386.86,386.86 0 0,1 837.4422568508892,787.9692233477704 L 744.0110339732157,504.0891321268774 A 88,88 0 0 0 771.832903177915,488.9271132366658 Z "/><path class="wedge" fill="rgb(127,212,161)" d=" M 814.6522889758382,541.8794579075744 L 959.7509877660024,721.3149207583697 A 386.86,386.86 0 0,1 837.4422568508892,787.9692233477704 L 765.3004568977855,568.7746102328396 A 156.09882969815342,156.09882969815342 0 0 0 814.6522889758382,541.8794579075744 Z "/><path class="wedge" fill="rgb(114,152,208)" d=" M 744.0110339732157,504.0891321268774 L 837.4422568508892,787.9692233477704 A 386.86,386.86 0 0,1 765.4300342132824,804.2531906732333 L 727.6302357720334,507.79328640656706 A 88,88 0 0 0 744.0110339732157,504.0891321268774 Z "/><path class="wedge" fill="rgb(114,152,208)" d=" M 744.0110339732157,504.0891321268774 L 837.4422568508892,787.9692233477704 A 386.86,386.86 0 0,1 765.4300342132824,804.2531906732333 L 727.6302357720334,507.79328640656706 A 88,88 0 0 0 744.0110339732157,504.0891321268774 Z "/><path class="wedge" fill="rgb(114,152,208)" d=" M 744.0110339732157,504.0891321268774 L 837.4422568508892,787.9692233477704 A 386.86,386.86 0 0,1 765.4300342132824,804.2531906732333 L 727.6302357720334,507.79328640656706 A 88,88 0 0 0 744.0110339732157,504.0891321268774 Z "/><path class="wedge" fill="rgb(114,152,208)" d=" M 744.0110339732157,504.0891321268774 L 837.4422568508892,787.9692233477704 A 386.86,386.86 0 0,1 765.4300342132824,804.2531906732333 L 727.6302357720334,507.79328640656706 A 88,88 0 0 0 744.0110339732157,504.0891321268774 Z "/><path class="wedge" fill="rgb(114,152,208)" d=" M 746.4255514260024,573.7034790890298 L 790.6645459293293,800.1844475707379 A 386.86,386.86 0 0,1 765.4300342132824,804.2531906732333 L 736.2433724804425,575.3452255519414 A 156.09882969815342,156.09882969815342 0 0 0 746.4255514260024,573.7034790890298 Z "/><path class="wedge" fill="rgb(127,161,212)" d=" M 765.3004568977855,568.7746102328396 L 837.4422568508892,787.9692233477704 A 386.86,386.86 0 0,1 803.3373774162156,797.4879699452938 L 751.5390657827847,572.6154446537325 A 156.09882969815342,156.09882969815342 0 0 0 765.3004568977855,568.7746102328396 Z "/><path class="wedge" fill="rgb(127,141,212)" d=" M 751.5390657827847,572.6154446537325 L 803.3373774162156,797.4879699452938 A 386.86,386.86 0 0,1 790.6645459293293,800.1844475707379 L 746.4255514260024,573.7034790890298 A 156.09882969815342,156.09882969815342 0 0 0 751.5390657827847,572.6154446537325 Z "/><path class="wedge" fill="url(#hiddenPattern)" d=" M 751.5390657827847,572.6154446537325 L 803.3373774162156,797.4879699452938 A 386.86,386.86 0 0,1 790.6645459293293,800.1844475707379 L 746.4255514260024,573.7034790890298 A 156.09882969815342,156.09882969815342 0 0 0 751.5390657827847,572.6154446537325 Z "/><path class="wedge" fill="rgb(189,114,208)" d=" M 727.6302357720334,507.79328640656706 L 765.4300342132824,804.2531906732333 A 386.86,386.86 0 0,1 716.5000891799705,807.3599999999897 L 716.5000202859882,508.49999999999767 A 88,88 0 0 0 727.6302357720334,507.79328640656706 Z "/><path class="wedge" fill="rgb(189,114,208)" d=" M 727.6302357720334,507.79328640656706 L 765.4300342132824,804.2531906732333 A 386.86,386.86 0 0,1 716.5000891799705,807.3599999999897 L 716.5000202859882,508.49999999999767 A 88,88 0 0 0 727.6302357720334,507.79328640656706 Z "/><path class="wedge" fill="rgb(189,114,208)" d=" M 727.6302357720334,507.79328640656706 L 765.4300342132824,804.2531906732333 A 386.86,386.86 0 0,1 716.5000891799705,807.3599999999897 L 716.5000202859882,508.49999999999767 A 88,88 0 0 0 727.6302357720334,507.79328640656706 Z "/><path class="wedge" fill="rgb(189,114,208)" d=" M 727.6302357720334,507.79328640656706 L 765.4300342132824,804.2531906732333 A 386.86,386.86 0 0,1 716.5000891799705,807.3599999999897 L 716.5000202859882,508.49999999999767 A 88,88 0 0 0 727.6302357720334,507.79328640656706 Z "/><path class="wedge" fill="rgb(195,127,212)" d=" M 736.2433724804425,575.3452255519414 L 765.4300342132824,804.2531906732333 A 386.86,386.86 0 0,1 716.5000891799705,807.3599999999897 L 716.500035984307,576.5988296981493 A 156.09882969815342,156.09882969815342 0 0 0 736.2433724804425,575.3452255519414 Z "/><circle cx="716.5" cy="420.5" r="88"/><circle cx="716.5" cy="420.5" r="386.86"/><text x="716.5" y="420.5" text-anchor="middle" style="font-color:black;font-weight:bold" transform="rotate(360,716.5,420.5)">Bacteria</text><rect fill="rgb(220,220,220)" x="1548.385" y="806.385" width="22" height="22"/><path class="line" d="M 716.5000445899852,807.3599999999974 L 716.5000474980277,832.5899999999973 A 412.09000000000003,412.09000000000003 0 0,0 827.4074608626491,817.385 L 1128.5900000000001,817.385 L 1390.7266697184245,817.385"/><text x="1541.0516666666667" y="817.385" style="font-color:black;font-weight:normal" text-anchor="end">[other Bacteria]&#160;&#160;&#160;0.000004%</text><path class="line" d=" M 802.3201564299704,439.9653731106136 A 88,88 0 1 0 716.5,508.5"/><line x1="1093.7771104147544" y1="506.07243456331787" x2="802.3201564299704" y2="439.9653731106136"/><text x="716.5" y="298.4505851509233" text-anchor="middle" style="font-color:black;font-weight:normal" transform="rotate(321.389686530804,716.5,420.5)">Pseudomonadota</text><line x1="615.8843071528604" y1="46.953293478727005" x2="675.9013547466593" y2="269.77311242937935"/><path class="line" d=" M 675.9013547466593,269.77311242937935 A 156.09882969815342,156.09882969815342 0 0 0 716.5,576.5988296981534"/><text x="716.5" y="593.3476818284591" text-anchor="middle" style="font-color:black;font-weight:normal" transform="rotate(82.46250770465019,716.5,420.5)">Burkholderiales</text><path class="line" d=" M 510.50475971803155,470.29539054609006 A 211.92833679917265,211.92833679917265 0 0 0 716.5,632.4283367991727"/><line x1="340.47044274924247" y1="511.39791897397464" x2="510.50475971803155" y2="470.29539054609006"/><text x="417.1058316004137" y="420.5" text-anchor="end" style="font-color:black;font-weight:normal" transform="rotate(-51.794730997642134,716.5,420.5)">Burkholderiaceae&#160;&#160;&#160;21%</text><path class="line" d=" M 637.8556482536826,666.7708818652192 A 258.5232703573727,258.5232703573727 0 0 0 716.5,679.0232703573727"/><line x1="598.81483427189" y1="789.025252007983" x2="637.8556482536826" y2="666.7708818652192"/><text x="393.80836482131366" y="420.5" text-anchor="end" style="font-color:black;font-weight:normal" transform="rotate(-81.14479679290879,716.5,420.5)">Burkholderia-Caballeronia-Paraburkholderia&#160;&#160;&#160;5%</text><path class="line" d=" M 606.6261968526469,654.512881479221 A 258.5232703573727,258.5232703573727 0 0 0 637.8556482536826,666.7708818652192"/><line x1="552.0823851878918" y1="770.6821062525858" x2="606.6261968526469" y2="654.512881479221"/><text x="393.80836482131366" y="420.5" text-anchor="end" style="font-color:black;font-weight:normal" transform="rotate(-68.5692920771737,716.5,420.5)">Pandoraea&#160;&#160;&#160;2%</text><path class="line" d=" M 597.983737751729,244.808464856264 A 211.92833679917265,211.92833679917265 0 0 0 510.50475971803155,470.29539054609006"/><line x1="500.1570516909511" y1="99.78768605345346" x2="597.983737751729" y2="244.808464856264"/><text x="417.1058316004137" y="420.5" text-anchor="end" style="font-color:black;font-weight:normal" transform="rotate(21.20405582569394,716.5,420.5)">Oxalobacteraceae&#160;&#160;&#160;19%</text><path class="line" d=" M 462.27227901064407,467.4313029526077 A 258.5232703573727,258.5232703573727 0 0 0 465.2142871025675,481.24349191395186"/><line x1="336.067956083852" y1="490.7290506968594" x2="462.27227901064407" y2="467.4313029526077"/><text x="393.80836482131366" y="420.5" text-anchor="end" style="font-color:black;font-weight:normal" transform="rotate(-12.024353665456745,716.5,420.5)">Actimicrobium&#160;&#160;&#160;0.9%</text><path class="line" d=" M 617.1612768092837,233.2957318507353 A 211.92833679917265,211.92833679917265 0 0 0 597.983737751729,244.808464856264"/><line x1="535.1642756981682" y1="78.77201652201484" x2="617.1612768092837" y2="233.2957318507353"/><text x="716.5" y="194.59318313336732" text-anchor="middle" style="font-color:black;font-weight:normal" transform="rotate(329.02260422068076,716.5,420.5)">Alcaligenaceae</text><path class="line" d=" M 595.3204919631587,192.1366751244405 A 258.5232703573727,258.5232703573727 0 0 0 571.9265457384807,206.18061767734673"/><text x="393.80836482131366" y="420.5" text-anchor="end" style="font-color:black;font-weight:normal" transform="rotate(59.02260422068079,716.5,420.5)">Verticiella&#160;&#160;&#160;2%</text><path class="line" d=" M 868.7321001797338,455.0287171496506 A 156.09882969815342,156.09882969815342 0 0 0 675.9013547466593,269.77311242937935"/><line x1="1093.777077537427" y1="506.07257951480887" x2="868.7321001797338" y2="455.0287171496506"/><text x="716.5" y="225.32051533113312" text-anchor="middle" style="font-color:black;font-weight:normal" transform="rotate(403.8522052420973,716.5,420.5)">Alphaproteobacteria</text><line x1="987.649682355909" y1="144.56792618782123" x2="865.040301931737" y2="269.3398245552355"/><path class="line" d=" M 865.040301931737,269.3398245552355 A 211.92833679917265,211.92833679917265 0 0 0 661.3810514372365,215.8649066073979"/><text x="1015.8941683995863" y="420.5" text-anchor="start" style="font-color:black;font-weight:normal" transform="rotate(284.7120845603702,716.5,420.5)">17%&#160;&#160;&#160;Acetobacteraceae</text><path class="line" d=" M 736.9815945576422,162.78933743314462 A 258.5232703573727,258.5232703573727 0 0 0 649.2625033239016,170.87347825801265"/><line x1="747.1491158788773" y1="34.85600446027536" x2="736.9815945576422" y2="162.78933743314462"/><text x="393.80836482131366" y="420.5" text-anchor="end" style="font-color:black;font-weight:normal" transform="rotate(84.73452759487729,716.5,420.5)">Acidisoma&#160;&#160;&#160;5%</text><line x1="1095.1100000000001" y1="420.5" x2="1111.6100000000001" y2="420.5" class="tick" transform="rotate(275.5735963350325,716.5,420.5)"/><text x="1114.3600000000001" y="420.5" text-anchor="start" style="font-color:black;font-weight:normal" transform="rotate(275.5735963350325,716.5,420.5)">2 more</text><path class="line" d=" M 746.2280598035792,163.69165944894615 A 258.5232703573727,258.5232703573727 0 0 0 736.9815945576422,162.78933743314462"/><line x1="760.985733140056" y1="36.2062592924629" x2="746.2280598035792" y2="163.69165944894615"/><path class="line" d=" M 923.1810297808905,373.63240066768725 A 211.92833679917265,211.92833679917265 0 0 0 865.040301931737,269.3398245552355"/><line x1="1093.781416863115" y1="334.94655419119346" x2="923.1810297808905" y2="373.63240066768725"/><text x="716.5" y="175.9552097100873" text-anchor="middle" style="font-color:black;font-weight:normal" transform="rotate(420.8613321951649,716.5,420.5)">Caulobacterales</text><path class="line" d=" M 968.6222812710431,363.32800857975775 A 258.5232703573727,258.5232703573727 0 0 0 897.6986316471396,236.10548488234397"/><text x="1039.1916351786863" y="420.5" text-anchor="start" style="font-color:black;font-weight:normal" transform="rotate(330.86133219516495,716.5,420.5)">9%&#160;&#160;&#160;Caulobacteraceae</text><path class="line" d=" M 926.2218242767245,451.0020714133688 A 211.92833679917265,211.92833679917265 0 0 0 923.1810297808905,373.63240066768725"/><line x1="1099.3321694261056" y1="476.1793467319936" x2="926.2218242767245" y2="451.0020714133688"/><text x="716.5" y="194.59318313336732" text-anchor="middle" style="font-color:black;font-weight:normal" transform="rotate(447.74931098414066,716.5,420.5)">Hyphomicrobiales</text><path class="line" d=" M 975.0153955775922,422.51781209042014 A 258.5232703573727,258.5232703573727 0 0 0 968.6222812710431,363.32800857975775"/><line x1="1103.3482160035278" y1="423.5194991120948" x2="975.0153955775922" y2="422.51781209042014"/><text x="1039.1916351786863" y="420.5" text-anchor="start" style="font-color:black;font-weight:normal" transform="rotate(353.8353585964329,716.5,420.5)">4%&#160;&#160;&#160;Xanthobacteraceae</text><path class="line" d=" M 1010.7861531325964,373.6272943640879 A 297.99562154369454,297.99562154369454 0 0 0 1007.1173042315299,354.5987637414049"/><line x1="1098.544342165554" y1="359.64952572667204" x2="1010.7861531325964" y2="373.6272943640879"/><text x="1058.9278107718474" y="420.5" text-anchor="start" style="font-color:black;font-weight:normal" transform="rotate(349.0868440040701,716.5,420.5)">1%&#160;&#160;&#160;Bradyrhizobium</text><path class="line" d=" M 972.3316301453875,457.7083100049555 A 258.5232703573727,258.5232703573727 0 0 0 975.0153955775922,422.51781209042014"/><text x="1039.1916351786863" y="420.5" text-anchor="start" style="font-color:black;font-weight:normal" transform="rotate(364.3611589016838,716.5,420.5)">2%&#160;&#160;&#160;Beijerinckiaceae</text><line x1="1095.1100000000001" y1="420.5" x2="1111.6100000000001" y2="420.5" class="tick" transform="rotate(369.82358065668086,716.5,420.5)"/><text x="1114.3600000000001" y="420.5" text-anchor="start" style="font-color:black;font-weight:normal" transform="rotate(369.82358065668086,716.5,420.5)">2 more</text><path class="line" d=" M 924.2676492783663,462.2878433495356 A 211.92833679917265,211.92833679917265 0 0 0 926.2218242767245,451.0020714133688"/><line x1="1095.7649629294056" y1="496.78071508682007" x2="924.2676492783663" y2="462.2878433495356"/><path class="line" d=" M 771.832903177915,488.9271132366658 A 88,88 0 0 0 802.3201564299704,439.9653731106136"/><line x1="959.7509877660024" y1="721.3149207583697" x2="771.832903177915" y2="488.9271132366658"/><text x="716.5" y="562.0062233342634" text-anchor="middle" style="font-color:black;font-weight:normal" transform="rotate(301.909491150659,716.5,420.5)">Actinomycetota</text><line x1="1017.7667375142128" y1="663.1911874534023" x2="838.0617669258888" y2="518.4264083635716"/><path class="line" d=" M 838.0617669258888,518.4264083635716 A 156.09882969815342,156.09882969815342 0 0 0 868.7321134458051,455.0286586614169"/><text x="716.5" y="593.3476818284591" text-anchor="middle" style="font-color:black;font-weight:normal" transform="rotate(295.81660975824525,716.5,420.5)">Acidimicrobiales</text><path class="line" d=" M 881.5389252295404,553.4502655038407 A 211.92833679917265,211.92833679917265 0 0 0 923.1786706369144,467.37800168758724"/><text x="1015.8941683995863" y="420.5" text-anchor="start" style="font-color:black;font-weight:normal" transform="rotate(385.8166097582453,716.5,420.5)">7%&#160;&#160;&#160;Acidimicrobiaceae</text><line x1="972.850430024714" y1="710.2328366377277" x2="819.9379416829763" y2="537.407813483626"/><path class="line" d=" M 819.9379416829763,537.407813483626 A 156.09882969815342,156.09882969815342 0 0 0 838.0617669258888,518.4264083635716"/><text x="716.5" y="615.6794846688668" text-anchor="middle" style="font-color:black;font-weight:normal" transform="rotate(313.6760097983583,716.5,420.5)">Micrococcales</text><path class="line" d=" M 860.7846859194267,575.7274117145421 A 211.92833679917265,211.92833679917265 0 0 0 881.5389252295404,553.4502655038407"/><line x1="979.8813601230854" y1="703.8565223172279" x2="860.7846859194267" y2="575.7274117145421"/><text x="1015.8941683995863" y="420.5" text-anchor="start" style="font-color:black;font-weight:normal" transform="rotate(402.9731134613691,716.5,420.5)">2%&#160;&#160;&#160;Microbacteriaceae</text><line x1="1095.1100000000001" y1="420.5" x2="1111.6100000000001" y2="420.5" class="tick" transform="rotate(409.76889339210067,716.5,420.5)"/><text x="1114.3600000000001" y="420.5" text-anchor="start" style="font-color:black;font-weight:normal" transform="rotate(409.76889339210067,716.5,420.5)">1 more</text><path class="line" d=" M 814.6522796489356,541.8794654496808 A 156.09882969815342,156.09882969815342 0 0 0 819.9379416829763,537.407813483626"/><line x1="837.4422568508892" y1="787.9692233477704" x2="744.0110339732157" y2="504.0891321268774"/><path class="line" d=" M 744.0110339732157,504.0891321268774 A 88,88 0 0 0 771.832903177915,488.9271132366658"/><text x="716.5" y="523.09260636389" text-anchor="middle" style="font-color:black;font-weight:normal" transform="rotate(331.4110446771874,716.5,420.5)">Sphingob...eriaceae</text><line x1="824.48260636389" y1="420.5" x2="832.18260636389" y2="420.5" class="tick" transform="rotate(421.4110446771875,716.5,420.5)"/><path class="line" d=" M 765.3004568977855,568.7746102328396 A 156.09882969815342,156.09882969815342 0 0 0 814.6522889758382,541.8794579075744"/><text x="987.9794148490766" y="420.5" text-anchor="start" style="font-color:black;font-weight:normal" transform="rotate(421.4110446771875,716.5,420.5)">6%&#160;&#160;&#160;Mucilaginibacter</text><line x1="765.4300342132824" y1="804.2531906732333" x2="727.6302357720334" y2="507.79328640656706"/><path class="line" d=" M 727.6302357720334,507.79328640656706 A 88,88 0 0 0 744.0110339732157,504.0891321268774"/><text x="716.5" y="542.5494148490767" text-anchor="middle" style="font-color:black;font-weight:normal" transform="rotate(347.25812547083984,716.5,420.5)">Acidobacter...Subgroup 1)</text><line x1="843.9394148490767" y1="420.5" x2="851.6394148490767" y2="420.5" class="tick" transform="rotate(437.2581254708398,716.5,420.5)"/><path class="line" d=" M 751.5390657827847,572.6154446537325 A 156.09882969815342,156.09882969815342 0 0 0 765.3004568977855,568.7746102328396"/><line x1="803.3373774162156" y1="797.4879699452938" x2="751.5390657827847" y2="572.6154446537325"/><text x="987.9794148490766" y="420.5" text-anchor="start" style="font-color:black;font-weight:normal" transform="rotate(434.40546553208566,716.5,420.5)">1%&#160;&#160;&#160;Granulicella</text><line x1="1095.1100000000001" y1="420.5" x2="1111.6100000000001" y2="420.5" class="tick" transform="rotate(437.98795715480725,716.5,420.5)"/><text x="1114.3600000000001" y="420.5" text-anchor="start" style="font-color:black;font-weight:normal" transform="rotate(437.98795715480725,716.5,420.5)">1 more</text><path class="line" d=" M 746.4255514260024,573.7034790890298 A 156.09882969815342,156.09882969815342 0 0 0 751.5390657827847,572.6154446537325"/><line x1="790.6645459293293" y1="800.1844475707379" x2="746.4255514260024" y2="573.7034790890298"/><line x1="716.5000891799705" y1="807.3599999999897" x2="716.5000202859882" y2="508.49999999999767"/><path class="line" d=" M 716.5000202859882,508.49999999999767 A 88,88 0 0 0 727.6302357720334,507.79328640656706"/><text x="716.5" y="562.0062233342634" text-anchor="middle" style="font-color:black;font-weight:normal" transform="rotate(356.36687880952155,716.5,420.5)">Isosphaeraceae</text><line x1="847.2262233342634" y1="420.5" x2="854.9262233342635" y2="420.5" class="tick" transform="rotate(446.3668788095216,716.5,420.5)"/><path class="line" d=" M 716.500035984307,576.5988296981493 A 156.09882969815342,156.09882969815342 0 0 0 736.2433724804425,575.3452255519414"/><text x="987.9794148490766" y="420.5" text-anchor="start" style="font-color:black;font-weight:normal" transform="rotate(446.3668788095216,716.5,420.5)">2%&#160;&#160;&#160;Tundrisphaera</text></svg>